# xmcd
#
# Track frame offsets:
#	182
#	32912
#	59800
#
# Disc length: 1040 seconds
#
# Revision: 0
# Processed by: cddbd v1.5.1PL0 Copyright (c) Steve Scherf et al.
# Submitted via: dBpowerAMP V4.0
#
DISCID=28040e03
DTITLE=DJ Mo vs. Marc De Clarq - MAXI - Eternity
DYEAR=1998
DGENRE=
TTITLE0=Eternity (For the Floor)
TTITLE1=Eternity (For the Mind)
TTITLE2=Eternity (for the Radio)
EXTD=
EXTT0=
EXTT1=
EXTT2=
PLAYORDER=
